<svg width="131" height="21" viewBox="0 0 131 21" fill="none" xmlns="http://www.w3.org/2000/svg">
<g filter="url(#filter0_d_1_3)">
<path d="M5.32901 9.19794L5.3407 7.34997L7.26067 7.36212C7.70066 7.36491 8.07711 7.29529 8.39001 7.15326C8.70297 7.00324 8.96028 6.79686 9.16194 6.53413C9.36361 6.2714 9.51353 5.96835 9.6117 5.62496C9.70988 5.28157 9.76021 4.91389 9.76269 4.52189C9.76689 3.85791 9.59413 3.3448 9.24441 2.98258C8.90275 2.61241 8.33592 2.42482 7.54394 2.41981L5.37198 2.40607L5.38367 0.55811L7.55563 0.571851C9.0116 0.581063 10.1054 0.92799 10.8371 1.61263C11.5768 2.28933 11.9427 3.25566 11.9348 4.51164C11.9308 5.14362 11.835 5.74303 11.6474 6.30985C11.4678 6.87673 11.1846 7.37895 10.7979 7.81651C10.4191 8.25412 9.92889 8.59903 9.32729 8.85123C8.72573 9.09543 7.99696 9.21482 7.14098 9.2094L5.32901 9.19794ZM4.17704 9.19065L4.2317 0.550822L6.36765 0.564335L6.31299 9.20416L4.17704 9.19065ZM13.0598 5.94678C13.0647 5.1708 13.2128 4.53172 13.504 4.02955C13.7952 3.51939 14.1936 3.1419 14.6992 2.89709C15.2128 2.64434 15.8016 2.52006 16.4656 2.52426C17.1215 2.52841 17.7047 2.6601 18.2151 2.91934C18.7255 3.17057 19.1231 3.55309 19.4079 4.06691C19.6927 4.57272 19.8326 5.21362 19.8277 5.9896C19.8228 6.75759 19.6748 7.39666 19.3836 7.90683C19.0924 8.409 18.69 8.78646 18.1764 9.03921C17.6628 9.28397 17.078 9.40427 16.422 9.40012C15.7581 9.39592 15.1709 9.2682 14.6604 9.01697C14.1501 8.75774 13.7525 8.37521 13.4677 7.8694C13.1909 7.35564 13.055 6.71477 13.0598 5.94678ZM15.2078 5.96037C15.2038 6.58436 15.3009 7.05698 15.4988 7.37824C15.7048 7.69955 16.0158 7.86152 16.4318 7.86415C16.8478 7.86679 17.1568 7.70874 17.3588 7.39001C17.5688 7.07133 17.6758 6.6 17.6797 5.97601C17.6837 5.34402 17.5827 4.86738 17.3768 4.54607C17.1788 4.22481 16.8718 4.06286 16.4558 4.06023C16.0398 4.0576 15.7268 4.21562 15.5168 4.5343C15.3148 4.85303 15.2118 5.32838 15.2078 5.96037ZM24.0571 9.46043C23.0011 9.45375 22.2061 9.29271 21.6721 8.97733C21.1381 8.65394 20.8736 8.10826 20.8785 7.34028C20.8815 6.85228 21.004 6.45705 21.246 6.15458C21.4959 5.85215 21.8373 5.63431 22.2701 5.50104C22.703 5.35978 23.1955 5.29089 23.7475 5.29439C24.0194 5.29611 24.2673 5.31367 24.4911 5.34709C24.7149 5.38051 24.9267 5.42185 25.1264 5.47111L25.1185 6.70709C24.9988 6.66633 24.839 6.62932 24.6392 6.59605C24.4394 6.56279 24.2475 6.54557 24.0636 6.54441C23.6396 6.54173 23.3232 6.59973 23.1144 6.71841C22.9137 6.83714 22.8124 7.0365 22.8106 7.3165C22.8089 7.59649 22.9076 7.79312 23.1069 7.90639C23.3142 8.0197 23.6058 8.07755 23.9818 8.07992C24.2298 8.08149 24.47 8.05901 24.7023 8.01248C24.9346 7.95795 25.1312 7.86719 25.292 7.74021L25.0483 8.32668C24.9931 8.19832 24.9498 8.08205 24.9185 7.97785C24.8872 7.87365 24.8638 7.7655 24.8486 7.6534C24.8333 7.5333 24.8222 7.39323 24.8152 7.23318C24.8163 7.06518 24.8176 6.85719 24.8192 6.60919L24.8271 5.34922C24.8292 5.02122 24.7748 4.76887 24.6639 4.59217C24.553 4.41546 24.3818 4.29838 24.1501 4.24091C23.9265 4.1755 23.6427 4.1417 23.2988 4.13952C22.9548 4.13735 22.6266 4.16727 22.3142 4.2293C22.0098 4.28337 21.7614 4.3538 21.5688 4.44058L21.4488 4.43983L21.459 2.83186C21.7475 2.75368 22.0679 2.69171 22.4202 2.64593C22.7805 2.59221 23.1607 2.56662 23.5607 2.56915C24.0487 2.57224 24.4964 2.61907 24.9038 2.70965C25.3113 2.80023 25.6623 2.95445 25.9569 3.17232C26.2596 3.38224 26.4897 3.6757 26.6474 4.05271C26.805 4.42171 26.882 4.89821 26.8783 5.4822L26.8691 6.93417C26.8681 7.10216 26.8708 7.31019 26.8772 7.55823C26.8836 7.80628 26.8941 8.05035 26.9086 8.29044C26.923 8.53054 26.9498 8.72271 26.9889 8.86696L26.9403 8.96266C26.6597 9.06489 26.3631 9.15501 26.0506 9.23304C25.7381 9.30306 25.4138 9.35701 25.0775 9.39488C24.7412 9.44076 24.4011 9.4626 24.0571 9.46043ZM28.5867 9.34508L28.6134 5.12117C28.6144 4.96117 28.6117 4.75715 28.6053 4.5091C28.6069 4.25311 28.5965 4.00504 28.574 3.76489C28.5596 3.51679 28.5368 3.32065 28.5057 3.17645L28.5423 3.08068C28.7748 3.00215 29.0353 2.93179 29.3237 2.86961C29.6201 2.80749 29.9444 2.75754 30.2967 2.71977C30.657 2.67405 31.0491 2.65253 31.4731 2.65521C31.5931 2.65597 31.7531 2.66098 31.953 2.67025C32.1609 2.67956 32.3808 2.70495 32.6125 2.74642L32.6021 4.40239L32.4701 4.40155C32.3343 4.36869 32.1864 4.34376 32.0265 4.32674C31.8747 4.30178 31.7228 4.28882 31.5708 4.28786C31.3068 4.28619 31.0586 4.30862 30.8263 4.35515C30.5941 4.39368 30.3977 4.44844 30.2373 4.51943L30.5282 4.05326C30.663 4.24612 30.7284 4.65454 30.7245 5.27853L30.6987 9.35844L28.5867 9.34508ZM36.1512 5.07285C36.1569 4.16887 36.3379 3.386 36.6941 2.72424C37.0583 2.05453 37.5936 1.53791 38.2999 1.17437C39.0142 0.810881 39.8994 0.632478 40.9553 0.639159C41.3633 0.64174 41.7311 0.676067 42.0587 0.742141C42.3863 0.808215 42.6458 0.881859 42.8373 0.963072L42.8257 2.79904L42.6937 2.7982C42.5024 2.69299 42.2669 2.6075 41.9873 2.54173C41.7077 2.47596 41.4039 2.44203 41.076 2.43996C40.444 2.43596 39.9233 2.54067 39.5139 2.75408C39.1126 2.96755 38.8146 3.27367 38.6201 3.67245C38.4256 4.07122 38.3266 4.54261 38.3232 5.0866C38.3197 5.63058 38.4127 6.10318 38.6022 6.50439C38.7917 6.9056 39.0857 7.21546 39.4843 7.43399C39.891 7.65257 40.4103 7.76385 41.0422 7.76785C41.3702 7.76993 41.6744 7.73985 41.9548 7.67762C42.2352 7.6154 42.4718 7.53289 42.6644 7.43011L42.7964 7.43094L42.7848 9.26691C42.5923 9.34569 42.3318 9.41604 42.0034 9.47797C41.675 9.53989 41.3069 9.56956 40.8989 9.56698C39.8429 9.5603 38.96 9.37471 38.2503 9.01021C37.5486 8.64577 37.0199 8.13041 36.6641 7.46415C36.3163 6.78993 36.1454 5.99284 36.1512 5.07285ZM43.985 6.14244C43.9899 5.36645 44.1379 4.72738 44.4291 4.22521C44.7204 3.71504 45.1188 3.33755 45.6243 3.09275C46.1379 2.83999 46.7267 2.71571 47.3907 2.71991C48.0467 2.72406 48.6299 2.85576 49.1403 3.11499C49.6507 3.36623 50.0483 3.74875 50.333 4.26256C50.6178 4.76837 50.7578 5.40927 50.7529 6.18526C50.748 6.95324 50.6 7.59232 50.3087 8.10248C50.0175 8.60465 49.6151 8.98211 49.1015 9.23487C48.588 9.47963 48.0032 9.59993 47.3472 9.59578C46.6832 9.59158 46.096 9.46386 45.5856 9.21262C45.0752 8.95339 44.6776 8.57087 44.3928 8.06506C44.1161 7.55129 43.9801 6.91042 43.985 6.14244ZM46.133 6.15603C46.129 6.78001 46.226 7.25264 46.424 7.5739C46.63 7.89521 46.9409 8.05718 47.3569 8.05981C47.7729 8.06244 48.0819 7.90439 48.2839 7.58566C48.494 7.26699 48.601 6.79565 48.6049 6.17167C48.6089 5.53968 48.5079 5.06303 48.3019 4.74172C48.104 4.42046 47.797 4.25852 47.381 4.25588C46.965 4.25325 46.652 4.41128 46.442 4.72995C46.24 5.04868 46.1369 5.52404 46.133 6.15603ZM52.1761 9.49433L52.2017 5.43841C52.2027 5.27841 52.2 5.07439 52.1936 4.82634C52.1952 4.57035 52.1848 4.32228 52.1623 4.08213C52.1479 3.83403 52.1251 3.63789 52.094 3.49369L52.1306 3.39792C52.3953 3.28759 52.696 3.18549 53.0326 3.09162C53.3692 2.99774 53.7257 2.92 54.1021 2.85838C54.4865 2.79681 54.8707 2.76724 55.2547 2.76967C55.6547 2.7722 56.0424 2.81865 56.4178 2.90903C56.7933 2.99941 57.1323 3.15755 57.4348 3.38347C57.7455 3.60144 57.9915 3.90701 58.1731 4.30016C58.3546 4.69332 58.4434 5.18989 58.4396 5.78988L58.416 9.5338L56.304 9.52044L56.3272 5.84852C56.3296 5.47252 56.2794 5.1842 56.1767 4.98355C56.074 4.78289 55.9269 4.64196 55.7354 4.56074C55.5439 4.47953 55.3281 4.43817 55.0881 4.43665C54.8561 4.43518 54.636 4.46179 54.4276 4.51647C54.2193 4.57115 54.0309 4.62596 53.8626 4.6809L54.1655 4.21481C54.2208 4.33516 54.2597 4.49541 54.2825 4.69556C54.3053 4.8877 54.3157 5.13177 54.3138 5.42777L54.288 9.50769L52.1761 9.49433ZM60.3599 9.5461L60.3831 5.87418C60.3855 5.49818 60.3353 5.20986 60.2326 5.00921C60.1299 4.80855 59.9828 4.66762 59.7913 4.58641C59.5998 4.50519 59.372 4.46375 59.1081 4.46208C58.9401 4.46102 58.768 4.47593 58.5918 4.50681C58.4236 4.53775 58.2673 4.57676 58.123 4.62385L57.0514 3.29704C57.3723 3.15507 57.741 3.0374 58.1576 2.94404C58.5743 2.84267 58.9986 2.79335 59.4306 2.79609C59.8146 2.79852 60.1863 2.84087 60.5458 2.92315C60.9133 3.00547 61.2444 3.15557 61.539 3.37344C61.8337 3.58331 62.0678 3.88479 62.2413 4.2779C62.4148 4.671 62.4996 5.18355 62.4956 5.81554L62.4719 9.55946L60.3599 9.5461ZM64.2285 12.3546L64.2721 5.46677C64.2731 5.30677 64.2704 5.10675 64.2639 4.86671C64.2654 4.62671 64.2549 4.38664 64.2325 4.14649C64.218 3.9064 64.1952 3.71425 64.1641 3.57005L64.2007 3.47428C64.6739 3.28527 65.1509 3.13228 65.6316 3.01532C66.1204 2.89841 66.6368 2.84168 67.1808 2.84512C67.6527 2.84811 68.1043 2.91497 68.5355 3.0457C68.9747 3.16848 69.3655 3.36695 69.7078 3.64112C70.0501 3.9073 70.3199 4.26101 70.5171 4.70227C70.7143 5.14352 70.8109 5.68014 70.8069 6.31213C70.8041 6.76012 70.7333 7.19168 70.5947 7.60682C70.4561 8.02195 70.2417 8.3886 69.9517 8.70677C69.6697 9.02499 69.3081 9.27871 68.8669 9.46792C68.4257 9.64913 67.8932 9.73777 67.2692 9.73382C67.0372 9.73235 66.8133 9.71493 66.5975 9.68157C66.3817 9.6562 66.2218 9.62719 66.118 9.59453L66.2237 8.07117C66.3034 8.11168 66.4032 8.14431 66.5231 8.16907C66.651 8.18588 66.7989 8.19481 66.9669 8.19588C67.5669 8.19967 67.996 8.03038 68.2541 7.68801C68.5124 7.33764 68.6433 6.87445 68.6469 6.29847C68.6505 5.73048 68.5254 5.27768 68.2715 4.94006C68.0257 4.5945 67.6268 4.41997 67.0748 4.41648C66.8428 4.41501 66.6266 4.44565 66.4262 4.50838C66.2258 4.57111 66.0934 4.63428 66.029 4.69787L66.1883 4.17087C66.2756 4.29142 66.3306 4.44377 66.3535 4.62792C66.3763 4.81207 66.3868 5.04814 66.385 5.33614L66.3405 12.368L64.2285 12.3546ZM75.4658 9.78568C75.0498 9.78304 74.6421 9.73646 74.2426 9.64593C73.8432 9.55541 73.4842 9.40113 73.1655 9.18311C72.855 8.95714 72.6089 8.65158 72.4273 8.26642C72.2458 7.87327 72.157 7.37269 72.1608 6.76471L72.1716 5.06074C72.1726 4.90074 72.1699 4.69672 72.1635 4.44868C72.157 4.20063 72.1465 3.96056 72.132 3.72846C72.1175 3.48837 72.0908 3.29619 72.0517 3.15194L72.1003 3.05625L74.2962 3.07014L74.2731 6.71807C74.2708 7.08606 74.325 7.37441 74.4357 7.58311C74.5544 7.78387 74.7135 7.92488 74.913 8.00614C75.1206 8.07946 75.3643 8.117 75.6443 8.11877C75.8683 8.12019 76.0805 8.09753 76.2808 8.0508C76.4811 7.99606 76.6614 7.9452 76.8217 7.89822L76.5309 8.35239C76.4756 8.23203 76.4366 8.07578 76.4138 7.88364C76.391 7.69149 76.3805 7.45142 76.3824 7.16342L76.3955 5.08746C76.3965 4.92747 76.3938 4.72345 76.3874 4.4754C76.3809 4.22735 76.3665 3.98726 76.3439 3.75511C76.3295 3.51501 76.3067 3.32287 76.2756 3.17867L76.3122 3.0829L78.5201 3.09687L78.4946 7.14078C78.4935 7.30078 78.4922 7.50878 78.4906 7.76477C78.497 8.01282 78.5075 8.25689 78.522 8.49699C78.5445 8.73713 78.5712 8.92931 78.6023 9.07351L78.5657 9.16928C78.301 9.2796 77.9964 9.38168 77.6518 9.4755C77.3152 9.56937 76.9587 9.64312 76.5823 9.69674C76.214 9.75841 75.8418 9.78805 75.4658 9.78568ZM83.5158 9.78861C82.9319 9.78491 82.4203 9.70567 81.9813 9.55089C81.5503 9.38816 81.212 9.12202 80.9663 8.75246C80.7287 8.37494 80.6119 7.8702 80.6159 7.23821L80.6524 1.46632L82.7644 1.47968L82.7289 7.09557C82.7265 7.46357 82.8129 7.72812 82.9878 7.88923C83.1709 8.04239 83.4544 8.12018 83.8384 8.12261C83.9824 8.12352 84.1225 8.10841 84.2587 8.07727C84.3949 8.04613 84.5151 8.01089 84.6194 7.97155L84.7514 7.97239L84.7409 9.62835C84.5645 9.68324 84.3803 9.72207 84.1881 9.74486C83.9959 9.77564 83.7718 9.79023 83.5158 9.78861ZM79.5637 4.7355L79.5741 3.10353L84.482 3.13458L84.4716 4.76655L79.5637 4.7355ZM88.8019 9.87005C87.7459 9.86337 86.9509 9.70234 86.4169 9.38695C85.8829 9.06357 85.6184 8.51788 85.6233 7.7499C85.6263 7.26191 85.7488 6.86667 85.9908 6.5642C86.2407 6.26177 86.5821 6.04393 87.0149 5.91067C87.4478 5.7694 87.9403 5.70052 88.4923 5.70401C88.7642 5.70573 89.0121 5.7233 89.2359 5.75671C89.4597 5.79013 89.6715 5.83147 89.8712 5.88073L89.8633 7.11671C89.7436 7.07595 89.5838 7.03894 89.384 7.00568C89.1842 6.97241 88.9923 6.9552 88.8084 6.95403C88.3844 6.95135 88.068 7.00935 87.8592 7.12803C87.6585 7.24676 87.5572 7.44613 87.5554 7.72612C87.5537 8.00612 87.6524 8.20274 87.8517 8.31601C88.059 8.42932 88.3506 8.48717 88.7266 8.48955C88.9746 8.49112 89.2148 8.46863 89.4471 8.4221C89.6794 8.36757 89.876 8.27681 90.0368 8.14983L89.7931 8.7363C89.7379 8.60795 89.6946 8.49167 89.6633 8.38747C89.632 8.28327 89.6086 8.17512 89.5934 8.06302C89.5781 7.94292 89.567 7.80285 89.56 7.6428C89.5611 7.4748 89.5624 7.26681 89.564 7.01881L89.5719 5.75884C89.574 5.43085 89.5196 5.1785 89.4087 5.00179C89.2978 4.82509 89.1266 4.708 88.8949 4.65053C88.6713 4.58512 88.3875 4.55132 88.0436 4.54915C87.6996 4.54697 87.3714 4.57689 87.059 4.63892C86.7546 4.69299 86.5062 4.76342 86.3136 4.85021L86.1936 4.84945L86.2038 3.24148C86.4923 3.1633 86.8127 3.10133 87.165 3.05556C87.5253 3.00184 87.9055 2.97624 88.3055 2.97877C88.7935 2.98186 89.2412 3.02869 89.6486 3.11927C90.0561 3.20985 90.4071 3.36407 90.7017 3.58194C91.0044 3.79186 91.2345 4.08532 91.3922 4.46233C91.5498 4.83133 91.6268 5.30783 91.6231 5.89182L91.6139 7.34379C91.6129 7.51179 91.6156 7.71981 91.622 7.96785C91.6284 8.2159 91.6389 8.45997 91.6534 8.70007C91.6678 8.94016 91.6946 9.13234 91.7337 9.27659L91.6851 9.37228C91.4045 9.47451 91.1079 9.56463 90.7954 9.64266C90.4829 9.71268 90.1586 9.76663 89.8223 9.8045C89.486 9.85038 89.1459 9.87223 88.8019 9.87005ZM96.6674 9.91981C95.9074 9.915 95.2441 9.79481 94.6776 9.55922C94.1191 9.32368 93.6854 8.95293 93.3766 8.44696C93.0759 7.93305 92.9281 7.2681 92.9332 6.45212C92.9377 5.74013 93.0816 5.13303 93.3648 4.63081C93.656 4.12064 94.0625 3.73121 94.5842 3.4625C95.1139 3.18585 95.7308 3.04575 96.4349 3.0422C96.7389 3.03613 96.9988 3.06177 97.2144 3.11914C97.4301 3.1685 97.5778 3.20944 97.6576 3.24194L97.6359 4.77784C97.5242 4.73713 97.4004 4.70035 97.2646 4.66749C97.1369 4.62668 96.977 4.60566 96.785 4.60445C96.209 4.60081 95.78 4.76609 95.4978 5.10032C95.2238 5.42659 95.0849 5.88172 95.0812 6.46571C95.0789 6.8337 95.1328 7.16205 95.243 7.45075C95.3532 7.73145 95.5318 7.95259 95.7788 8.11415C96.0258 8.27572 96.3452 8.35774 96.7372 8.36022C96.9612 8.36164 97.1453 8.3468 97.2895 8.31572C97.4337 8.28463 97.558 8.24941 97.6622 8.21007L97.5149 8.72515C97.4278 8.5886 97.3768 8.42427 97.3621 8.23217C97.3473 8.03208 97.3407 7.81603 97.3422 7.58403L97.3719 2.88013C97.3732 2.67213 97.3668 2.42809 97.3526 2.14799C97.3464 1.85995 97.3361 1.58788 97.3217 1.33178C97.3074 1.06768 97.2846 0.875536 97.2534 0.755336L97.29 0.659565L99.4979 0.673534L99.455 7.4654C99.4539 7.6254 99.4527 7.82939 99.4511 8.07739C99.4576 8.31743 99.464 8.55748 99.4705 8.79752C99.4851 9.02962 99.5079 9.21777 99.539 9.36197L99.4904 9.45766C99.1535 9.59153 98.7488 9.70098 98.2763 9.78599C97.8117 9.87905 97.2754 9.92366 96.6674 9.91981ZM100.832 6.50209C100.836 5.7261 100.984 5.08703 101.276 4.58486C101.567 4.07469 101.965 3.69721 102.471 3.4524C102.984 3.19964 103.573 3.07537 104.237 3.07957C104.893 3.08372 105.476 3.21541 105.987 3.47464C106.497 3.72588 106.895 4.1084 107.18 4.62221C107.464 5.12802 107.604 5.76892 107.599 6.54491C107.595 7.31289 107.446 7.95197 107.155 8.46214C106.864 8.9643 106.462 9.34177 105.948 9.59452C105.434 9.83928 104.85 9.95958 104.194 9.95543C103.53 9.95123 102.943 9.82351 102.432 9.57228C101.922 9.31304 101.524 8.93052 101.239 8.42471C100.963 7.91095 100.827 7.27007 100.832 6.50209ZM102.979 6.51568C102.976 7.13967 103.073 7.61229 103.271 7.93355C103.476 8.25486 103.787 8.41683 104.203 8.41946C104.619 8.42209 104.928 8.26404 105.13 7.94532C105.34 7.62664 105.447 7.15531 105.451 6.53132C105.455 5.89933 105.354 5.42268 105.148 5.10137C104.95 4.78011 104.644 4.61817 104.228 4.61554C103.812 4.6129 103.499 4.77093 103.289 5.0896C103.086 5.40833 102.983 5.88369 102.979 6.51568ZM109.023 9.85398L109.049 5.63006C109.05 5.47007 109.048 5.26604 109.041 5.018C109.043 4.762 109.032 4.51393 109.01 4.27379C108.995 4.02569 108.973 3.82954 108.942 3.68534L108.978 3.58957C109.211 3.51104 109.471 3.44069 109.76 3.37851C110.056 3.31638 110.38 3.26643 110.733 3.22866C111.093 3.18294 111.485 3.16142 111.909 3.1641C112.029 3.16486 112.189 3.16988 112.389 3.17914C112.597 3.18846 112.817 3.21385 113.048 3.25531L113.038 4.91128L112.906 4.91045C112.77 4.87759 112.622 4.85265 112.462 4.83564C112.311 4.81068 112.159 4.79772 112.007 4.79676C111.743 4.79509 111.495 4.81752 111.262 4.86405C111.03 4.90258 110.834 4.95734 110.673 5.02832L110.964 4.56215C111.099 4.75501 111.164 5.16343 111.16 5.78742L111.135 9.86734L109.023 9.85398ZM117.684 10.0408C117.1 10.0371 116.56 9.96967 116.065 9.83853C115.578 9.70745 115.159 9.50879 114.809 9.24257C114.466 8.9684 114.201 8.61071 114.011 8.16951C113.83 7.72835 113.741 7.19978 113.745 6.58379C113.75 5.86381 113.89 5.24868 114.165 4.73841C114.44 4.22014 114.831 3.8266 115.336 3.5578C115.842 3.28899 116.439 3.15676 117.127 3.16112C117.871 3.16582 118.478 3.32567 118.948 3.64065C119.418 3.95563 119.755 4.38577 119.96 4.93107C120.172 5.47643 120.257 6.09297 120.212 6.78071L120.197 7.21262L115.038 7.17998L115.045 5.932L118.189 5.95189L118.19 5.8919C118.192 5.4919 118.102 5.18333 117.92 4.96617C117.745 4.74106 117.466 4.62729 117.082 4.62486C116.834 4.62329 116.617 4.67792 116.433 4.78876C116.256 4.89964 116.115 5.08675 116.009 5.35009C115.912 5.60548 115.861 5.95717 115.858 6.40516L115.856 6.78915C115.853 7.21314 115.935 7.54567 116.102 7.78672C116.276 8.01983 116.515 8.18935 116.819 8.29527C117.122 8.39319 117.478 8.44344 117.886 8.44602C118.254 8.44835 118.59 8.41448 118.894 8.3444C119.207 8.27438 119.447 8.1919 119.616 8.09696L119.736 8.09772L119.725 9.74169C119.485 9.83617 119.196 9.91034 118.86 9.96422C118.532 10.0181 118.14 10.0437 117.684 10.0408ZM121.356 7.99997L121.452 8.00058C121.739 8.1224 122.086 8.2326 122.494 8.33117C122.901 8.42975 123.309 8.48033 123.717 8.48292C123.877 8.48393 124.025 8.48086 124.161 8.47372C124.297 8.45859 124.413 8.43532 124.509 8.40393C124.614 8.37259 124.694 8.32109 124.75 8.24945C124.807 8.17781 124.836 8.08198 124.836 7.96199C124.837 7.78599 124.762 7.66551 124.611 7.60055C124.467 7.53564 124.211 7.47002 123.844 7.4037L123.304 7.30428C122.697 7.18844 122.214 6.98938 121.856 6.70711C121.506 6.42489 121.333 5.99578 121.336 5.41979C121.339 5.0038 121.453 4.63252 121.679 4.30594C121.905 3.97136 122.259 3.7136 122.74 3.53264C123.221 3.34368 123.842 3.2516 124.602 3.25641C124.962 3.25869 125.29 3.28076 125.586 3.32263C125.889 3.36456 126.193 3.43048 126.496 3.5204L126.486 5.18837L126.39 5.18776C126.063 5.05769 125.743 4.96766 125.432 4.91769C125.12 4.85972 124.824 4.82985 124.544 4.82807C124.176 4.82575 123.888 4.86392 123.679 4.94261C123.471 5.01329 123.366 5.14863 123.365 5.34862C123.364 5.50062 123.443 5.60913 123.603 5.67414C123.77 5.7392 124.01 5.80072 124.322 5.85869L124.873 5.95818C125.249 6.02456 125.588 6.1307 125.891 6.27663C126.202 6.4226 126.449 6.62816 126.631 6.89332C126.813 7.15048 126.903 7.48305 126.901 7.89105C126.896 8.62703 126.617 9.17327 126.062 9.52978C125.516 9.87833 124.691 10.0491 123.587 10.0421C123.211 10.0397 122.823 10.0053 122.424 9.93876C122.024 9.87223 121.665 9.78996 121.345 9.69193L121.356 7.99997Z" fill="#9F22DA"/>
</g>
<defs>
<filter id="filter0_d_1_3" x="0.159424" y="0.0708313" width="130.786" height="20.6801" filterUnits="userSpaceOnUse" color-interpolation-filters="sRGB">
<feFlood flood-opacity="0" result="BackgroundImageFix"/>
<feColorMatrix in="SourceAlpha" type="matrix" values="0 0 0 0 0 0 0 0 0 0 0 0 0 0 0 0 0 0 127 0" result="hardAlpha"/>
<feOffset dy="4"/>
<feGaussianBlur stdDeviation="2"/>
<feComposite in2="hardAlpha" operator="out"/>
<feColorMatrix type="matrix" values="0 0 0 0 0 0 0 0 0 0 0 0 0 0 0 0 0 0 0.25 0"/>
<feBlend mode="normal" in2="BackgroundImageFix" result="effect1_dropShadow_1_3"/>
<feBlend mode="normal" in="SourceGraphic" in2="effect1_dropShadow_1_3" result="shape"/>
</filter>
</defs>
</svg>
